<svg width="50" height="50" viewBox="0 0 50 50" fill="none" xmlns="http://www.w3.org/2000/svg">
<path d="M14.2045 38.2582L37.7747 14.6879C38.6586 13.8041 38.6586 12.6256 37.7747 11.7417C36.8908 10.8578 35.7123 10.8578 34.8284 11.7417L11.2582 35.3119C10.3743 36.1958 10.3743 37.3743 11.2582 38.2582C12.1421 39.1421 13.3206 39.1421 14.2045 38.2582Z" fill="#535353"/>
<path d="M11.2583 14.688L34.8285 38.2582C35.7124 39.1421 36.8909 39.1421 37.7748 38.2582C38.6587 37.3743 38.6587 36.1958 37.7748 35.3119L14.2046 11.7417C13.3207 10.8578 12.1422 10.8578 11.2583 11.7417C10.3744 12.6256 10.3744 13.8041 11.2583 14.688Z" fill="#535353"/>
</svg>
